# xmcd CD database file
#
# Track frame offsets:
#	150
#	20407
#	45497
#	67470
#	95505
#	120400
#	136210
#	158047
#	180210
#	192702
#	213160
#
# Disc length: 3135 seconds
#
# Revision: 0
# Processed by: cddbd v1.5PL3 Copyright (c) Steve Scherf et al.
# Submitted via: CDex 1.50beta9
#
DISCID=940c3d0b
DTITLE=Duke Jordan - No Problem
DYEAR=1900
DGENRE=Jazz
TTITLE0=JORDU
TTITLE1=AUTUMN LEAVES
TTITLE2=IF I  HAD YOU
TTITLE3=NO PROBLEM
TTITLE4=FORECASTER
TTITLE5=KISS OF SPAIN
TTITLE6='ROUND MIDNIGHT
TTITLE7=TACKEY'S BLUES
TTITLE8=WHEN YOU WISH UPON A STAR/GLAD I MET PAT
TTITLE9=EVERYTHING HAPPENS TO ME
TTITLE10=THEY CAN'T TAKE THAT AWAY FROM ME
EXTD=
EXTT0=
EXTT1=
EXTT2=
EXTT3=
EXTT4=
EXTT5=
EXTT6=
EXTT7=
EXTT8=
EXTT9=
EXTT10=
PLAYORDER=
